Coordinates
version=1
nRows=13
nColumns=40
inDegrees=yes

Units are S.I. units (second, meters, Newtons, ...)
If the header above contains a line with 'inDegrees', this indicates whether rotational values are in degrees (yes) or radians (no).

endheader
time	pelvis_tilt	pelvis_list	pelvis_rotation	pelvis_tx	pelvis_ty	pelvis_tz	hip_flexion_r	hip_adduction_r	hip_rotation_r	knee_angle_r	knee_angle_r_beta	ankle_angle_r	subtalar_angle_r	mtp_angle_r	hip_flexion_l	hip_adduction_l	hip_rotation_l	knee_angle_l	knee_angle_l_beta	ankle_angle_l	subtalar_angle_l	mtp_angle_l	lumbar_extension	lumbar_bending	lumbar_rotation	arm_flex_r	arm_add_r	arm_rot_r	elbow_flex_r	pro_sup_r	wrist_flex_r	wrist_dev_r	arm_flex_l	arm_add_l	arm_rot_l	elbow_flex_l	pro_sup_l	wrist_flex_l	wrist_dev_l
      8.10000000	     11.20095991	     -3.10127127	   -172.79936404	      0.27570574	      0.90158220	     -0.59817894	     33.41572922	    -17.09785005	    -14.09149791	     24.82743403	      0.43332047	     -1.21703941	      0.00000000	      0.00000000	     32.85254485	     -2.81937551	     -8.80885400	     20.81970603	      0.36337242	     -2.88845327	      0.00000000	      0.00000000	    -43.97678094	      1.82465303	     -8.89766525	     38.02556694	     -3.51943114	     18.67114896	      9.46682185	     24.56008834	      0.00000000	      0.00000000	     47.36079058	    -12.11874987	     78.90539167	      6.42470761	     79.26652679	      0.00000000	      0.00000000
      8.10500000	     11.09309270	     -3.08819635	   -172.61795911	      0.27514535	      0.90208479	     -0.59798975	     33.12483732	    -17.14799938	    -14.27372547	     24.70878224	      0.43124960	     -1.18794930	      0.00000000	      0.00000000	     32.62718183	     -2.73615977	     -8.68964978	     20.63976375	      0.36023183	     -2.96388835	      0.00000000	      0.00000000	    -43.56630004	      1.87473457	     -8.99532595	     37.69158834	     -3.52115825	     18.50628461	      9.23516693	     25.20596558	      0.00000000	      0.00000000	     46.94924554	    -12.09932200	     78.80202670	      6.43869735	     79.13508871	      0.00000000	      0.00000000
      8.11000000	     11.03873717	     -3.05423441	   -172.46143160	      0.27459099	      0.90243860	     -0.59783479	     32.91275171	    -17.15993048	    -14.39932984	     24.61022568	      0.42952947	     -1.13378054	      0.00000000	      0.00000000	     32.49781950	     -2.69067077	     -8.59455812	     20.52985966	      0.35831365	     -3.00121427	      0.00000000	      0.00000000	    -43.08325762	      1.91634006	     -9.04969219	     37.28228894	     -3.59318432	     18.73469418	      9.15929577	     25.34467570	      0.00000000	      0.00000000	     46.52998191	    -12.00534296	     78.71153894	      6.33885270	     78.98541172	      0.00000000	      0.00000000
      8.11500000	     10.91678180	     -3.00450523	   -172.30316730	      0.27401952	      0.90302475	     -0.59769715	     32.56878358	    -17.14613167	    -14.61100185	     24.41284093	      0.42608445	     -1.13683098	      0.00000000	      0.00000000	     32.25539466	     -2.65887571	     -8.48747193	     20.33483278	      0.35490978	     -3.05709846	      0.00000000	      0.00000000	    -42.67999822	      1.97539826	     -9.08508394	     36.84717240	     -3.68854210	     18.76384104	      9.21907117	     25.43850793	      0.00000000	      0.00000000	     46.15464353	    -12.02215446	     79.10506065	      6.40660367	     78.93553225	      0.00000000	      0.00000000
      8.12000000	     10.81741279	     -2.93275702	   -172.11805419	      0.27343364	      0.90358730	     -0.59743774	     32.22268540	    -17.12589524	    -14.84588693	     24.18267059	      0.42206722	     -1.16762319	      0.00000000	      0.00000000	     32.03236987	     -2.61509554	     -8.30853678	     20.12313307	      0.35121493	     -3.14294964	      0.00000000	      0.00000000	    -42.25340857	      2.07580101	     -9.13460818	     36.35780499	     -3.80797550	     18.89296639	      9.33867241	     25.65707958	      0.00000000	      0.00000000	     45.78141648	    -11.97326899	     78.95638804	      6.43001046	     79.23329322	      0.00000000	      0.00000000
      8.12500000	     10.82905367	     -2.89839566	   -171.99433589	      0.27286016	      0.90385363	     -0.59734263	     32.09515061	    -17.13606057	    -14.96731017	     24.09095702	      0.42046652	     -1.15301070	      0.00000000	      0.00000000	     31.96147186	     -2.58117512	     -8.23658546	     19.99674847	      0.34900910	     -3.17627393	      0.00000000	      0.00000000	    -41.68475519	      2.07673520	     -9.24122596	     36.07685599	     -3.73744593	     18.48924078	      8.97968304	     26.68607256	      0.00000000	      0.00000000	     45.20351653	    -11.75422642	     77.76373723	      6.04993788	     78.56647034	      0.00000000	      0.00000000
      8.13000000	     10.70261308	     -2.76253218	   -171.86025271	      0.27229457	      0.90444396	     -0.59716955	     31.70905737	    -17.01121791	    -15.20125019	     23.81894369	      0.41571899	     -1.18098813	      0.00000000	      0.00000000	     31.75071709	     -2.64030876	     -8.07579455	     19.84321822	      0.34632949	     -3.21439261	      0.00000000	      0.00000000	    -41.27185228	      2.19079397	     -9.17775873	     35.61977661	     -3.91427549	     18.80075525	      9.10048837	     26.52352062	      0.00000000	      0.00000000	     44.97047969	    -11.91631055	     78.97753348	      6.45179485	     79.44497154	      0.00000000	      0.00000000
      8.13500000	     10.67566633	     -2.68601921	   -171.76038087	      0.27172566	      0.90483130	     -0.59711023	     31.50556090	    -16.95587299	    -15.37609765	     23.65038779	      0.41277714	     -1.21258649	      0.00000000	      0.00000000	     31.62869714	     -2.65259443	     -7.97847067	     19.69103456	      0.34367339	     -3.27958598	      0.00000000	      0.00000000	    -40.73843339	      2.21928184	     -9.30358805	     35.32442630	     -3.79859466	     18.58802565	      8.89317940	     26.97683961	      0.00000000	      0.00000000	     44.46636831	    -11.92930861	     78.61044298	      6.37852345	     79.28573920	      0.00000000	      0.00000000
      8.14000000	     10.67050498	     -2.61615350	   -171.80401525	      0.27113439	      0.90518106	     -0.59730985	     31.35538463	    -16.81032093	    -15.38117100	     23.43752912	      0.40906205	     -1.26470773	      0.00000000	      0.00000000	     31.54587391	     -2.75361168	     -8.05753290	     19.60858368	      0.34223435	     -3.30502743	      0.00000000	      0.00000000	    -40.19615929	      2.14682147	     -9.26388078	     35.15809672	     -3.65736280	     18.42877542	      8.33204148	     27.60881719	      0.00000000	      0.00000000	     44.01335562	    -11.90045544	     77.74935529	      6.35418233	     79.03333253	      0.00000000	      0.00000000
      8.14500000	     10.52331367	     -2.57095760	   -171.82279298	      0.27042729	      0.90593321	     -0.59745263	     30.98972454	    -16.68618455	    -15.46608599	     23.15246081	      0.40408667	     -1.33661747	      0.00000000	      0.00000000	     31.21052652	     -2.80820532	     -8.07258460	     19.34242624	      0.33758902	     -3.37656553	      0.00000000	      0.00000000	    -39.82069928	      2.08415496	     -9.19452104	     34.65569777	     -3.79084785	     18.23224817	      8.54333630	     28.12355846	      0.00000000	      0.00000000	     43.68483958	    -11.97809308	     78.30225061	      6.54665747	     79.21228149	      0.00000000	      0.00000000
      8.15000000	     10.53215919	     -2.41941287	   -171.79248998	      0.26978916	      0.90624212	     -0.59754153	     30.83200581	    -16.52341452	    -15.66332641	     22.96336455	      0.40078632	     -1.39012549	      0.00000000	      0.00000000	     31.17270542	     -2.93999217	     -7.99745528	     19.27457491	      0.33640479	     -3.36456249	      0.00000000	      0.00000000	    -39.23627056	      2.11593212	     -9.12548985	     34.29451121	     -3.81909296	     18.28190255	      8.25023703	     29.03054828	      0.00000000	      0.00000000	     43.28179706	    -12.03749301	     79.27870341	      6.69567359	     78.53874102	      0.00000000	      0.00000000
      8.15500000	     10.43232682	     -2.40946733	   -171.85520542	      0.26909546	      0.90682859	     -0.59773881	     30.56013303	    -16.42310505	    -15.67137557	     22.73435125	      0.39678928	     -1.41448456	      0.00000000	      0.00000000	     30.88264039	     -2.97815008	     -8.04655962	     19.02304175	      0.33201471	     -3.42455725	      0.00000000	      0.00000000	    -38.79788088	      1.98374213	     -9.05633046	     33.77570902	     -3.95105817	     18.62505907	      8.48111546	     28.83273309	      0.00000000	      0.00000000	     42.91930741	    -11.99859228	     79.36183308	      6.62702527	     78.52336487	      0.00000000	      0.00000000
      8.16000000	     10.38669281	     -2.33762123	   -171.89292508	      0.26844170	      0.90720749	     -0.59792359	     30.37312373	    -16.29271933	    -15.75180703	     22.56031427	      0.39375176	     -1.43182293	      0.00000000	      0.00000000	     30.74973051	     -3.07650225	     -8.03877992	     18.93336730	      0.33044960	     -3.40975563	      0.00000000	      0.00000000	    -38.26883793	      1.92221308	     -8.99853737	     32.88433009	     -4.56713689	     23.44802823	      9.66272988	     22.66111540	      0.00000000	      0.00000000	     42.52585303	    -11.97543960	     78.89314471	      6.59118481	     79.58037102	      0.00000000	      0.00000000
